Simulation
nRows=20
nColumns=15
endheader
time  TH_x TH_y TH_z SC_y  SC_z  SC_x  AC_y  AC_z  AC_x  GH_y  GH_z  GH_yy  EL_x  PS_y
0.0  0.000000  0.000000  0.000000  -32.586717745994456  -0.4045222772009265  2.5106788394282855  45.05748577932753  7.287889894401262  -3.989217929992186  -118.27893930824779  0.791476397835343  136.7785849068061  22.27583021228282  0.000000
0.03  0.000000  0.000000  0.000000  -32.51003116020544  -0.23484685894166768  2.508271142244581  44.90344876902616  7.498694636766826  -3.9263385940613653  -97.48216097406238  0.7029607731225538  116.15296292992123  22.424104871410034  0.000000
0.06  0.000000  0.000000  0.000000  -32.37863575116022  -0.17508366160207287  2.4441590417114445  44.79374468591401  7.573012056065929  -3.890244757547956  -66.8457006752573  0.720014550963456  85.81967278136783  22.62676612978201  0.000000
0.09  0.000000  0.000000  0.000000  -32.371712930166055  -0.1740552918009941  2.3470706822442393  44.71268351867698  7.496895138688704  -3.838772707385842  -35.84489681353148  0.9881228245076304  55.12663922569408  22.834407558157718  0.000000
0.12  0.000000  0.000000  0.000000  -32.42401531087744  -0.2184645391657795  2.2272401817615815  44.643382079198986  7.321363027795389  -3.7906734167884033  -18.087111984071452  1.5607258447300745  37.5965856661615  23.02609225817324  0.000000
0.15  0.000000  0.000000  0.000000  -32.52825396944698  -0.2761528780039694  2.102645844713225  44.60860024000873  7.079485729444248  -3.7417324446750766  -9.36569802241815  2.395283136294701  28.968170046184984  23.186541509236655  0.000000
0.18  0.000000  0.000000  0.000000  -32.66886678853969  -0.32105715365977583  1.9897230282310232  44.59863716134689  6.810979659165924  -3.6792774168725906  -5.152992198117879  3.4686435313256014  24.65769658202353  23.334937771872003  0.000000
0.21  0.000000  0.000000  0.000000  -32.83773965097647  -0.3397241675087225  1.908071057504784  44.62898205992746  6.543474609422553  -3.5935132973353854  -3.1054223936437757  4.7755637865996325  22.28012990133086  23.465767990127393  0.000000
0.24  0.000000  0.000000  0.000000  -33.02504390320116  -0.3298654320275607  1.8743606690234393  44.71335821807934  6.304828653464042  -3.480433353155749  -2.2931075197741455  6.31266559011845  20.874418094824993  23.61084246073602  0.000000
0.27  0.000000  0.000000  0.000000  -33.229344384857676  -0.2943747378422808  1.9092658497502653  44.878306673454745  6.108077285151541  -3.3400614884072675  -2.2830171752511803  8.079347310288815  19.99269696879927  23.802200761383922  0.000000
0.3  0.000000  0.000000  0.000000  -33.44791156983188  -0.2421607473731573  2.026931560321324  45.13062184660016  5.966509474336144  -3.1815873154383656  -2.8132458061290118  10.067798588995416  19.36660366661409  24.084349551290163  0.000000
0.32999999999999996  0.000000  0.000000  0.000000  -33.6759234344671  -0.17630316233521373  2.2322205841975653  45.45841185055609  5.890550315984326  -3.0229147254039974  -3.6204761534710785  12.258528572241962  18.764368030296822  24.468495900364694  0.000000
0.36  0.000000  0.000000  0.000000  -33.899136853866324  -0.08890497441472098  2.510601023688996  45.80910474272499  5.897220155949808  -2.883461493663867  -4.410999865144118  14.610007224413891  17.965931301036974  24.9189189633266  0.000000
0.39  0.000000  0.000000  0.000000  -34.10406656470497  0.03431562336040658  2.8326757358963937  46.115736561783855  6.006678194256039  -2.781224872712779  -4.91393833762943  17.067088563547706  16.814567777184468  25.346022479853577  0.000000
0.42  0.000000  0.000000  0.000000  -34.28178963164453  0.20426486007775518  3.1717903678379775  46.31828550277751  6.234963886385649  -2.726000371650698  -4.978458345383334  19.572200687879786  15.28107038817451  25.6534276704625  0.000000
0.44999999999999996  0.000000  0.000000  0.000000  -34.43240995887968  0.42302776822246313  3.51457012351716  46.39884502408121  6.582142963861071  -2.7167348047295254  -4.608258315381926  22.083017200052154  13.462934519832944  25.776372848367295  0.000000
0.48  0.000000  0.000000  0.000000  -34.55820528849523  0.6794643661520029  3.8646822636275253  46.378460539620356  7.0347188367615505  -2.7412666000565387  -3.945206273266108  24.575448004787596  11.549739455506282  25.709277512874877  0.000000
0.51  0.000000  0.000000  0.000000  -34.66297769457993  0.9572694717786994  4.23593517118093  46.30297477172912  7.5668569280948645  -2.785285165095731  -3.180123976718202  27.03818788666904  9.741917096035817  25.483454561057414  0.000000
0.54  0.000000  0.000000  0.000000  -34.754008504935754  1.2396267875700693  4.642280193268115  46.21314273367847  8.151202313223603  -2.8396083518078066  -2.4563080170533036  29.46135194111365  8.17432300775163  25.140890566363833  0.000000
0.57  0.000000  0.000000  0.000000  -34.84369714341985  1.5125284970937678  5.074057632132361  46.12660042589524  8.776889116766084  -2.8913518202841813  -1.8331163182116306  31.831849813022643  6.88896547475278  24.716755068680953  0.000000
